<svg width="32" height="32" viewBox="0 0 32 32" fill="none" xmlns="http://www.w3.org/2000/svg">
<path d="M24.2437 23.3563H27.3187L28.4124 18.6438H24.2437V23.3563Z" fill="black"/>
<path d="M24.2437 28H24.2749C25.4437 28 26.3624 27.2187 26.6687 26.1562L27.0437 24.5375H24.2437V28Z" fill="black"/>
<path d="M16.5874 24.5312H23.0687V28H16.5874V24.5312Z" fill="black"/>
<path d="M4.6875 23.3563H7.75V18.6438H3.59375L4.6875 23.3563Z" fill="black"/>
<path d="M8.93115 12H15.4124V17.4688H8.93115V12Z" fill="#FF9900"/>
<path d="M16.5874 12H23.0687V17.4688H16.5874V12Z" fill="#FF9900"/>
<path d="M5.34365 26.1437C5.6374 27.2062 6.55615 28 7.7249 28H7.75615V24.5312H4.9624L5.34365 26.1437Z" fill="black"/>
<path d="M8.93115 24.5312H15.4124V28H8.93115V24.5312Z" fill="black"/>
<path d="M16.5874 18.6438H23.0687V23.3563H16.5874V18.6438Z" fill="#FF9900"/>
<path d="M8.93115 18.6438H15.4124V23.3563H8.93115V18.6438Z" fill="#FF9900"/>
<path d="M29.0001 12H26.0063V6C26.0063 4.9 25.1063 4 24.0063 4H7.99382C6.89382 4 5.99382 4.9 5.99382 6V12H3.00007C2.35632 12 1.88132 12.6 2.02507 13.225L3.25632 17.4688H7.75007V6.625C7.75007 6.14375 8.14382 5.75 8.62507 5.75H23.3751C23.8563 5.75 24.2501 6.14375 24.2501 6.625V17.4688H28.7501L29.9751 13.225C30.1188 12.6 29.6438 12 29.0001 12Z" fill="#FF8A00"/>
</svg>
