<svg width="143" height="181" viewBox="0 0 143 181" fill="none" xmlns="http://www.w3.org/2000/svg">
<path d="M85.5001 178.238C61.6667 184.738 14.4001 174.738 16.0001 82.7382C17.6001 -9.26176 6.66669 8.40492 1 28.7383L51.5 91.7382M40 60.7382L24.5 42.7382C36.8333 34.7382 58.2 26.0382 45 55.2382M55 42.7382C48.1667 25.2382 40.4 -1.2618 64 32.7382M70 28.7383L55 11.2382C59.5 14.9049 70.6 21.6382 79 19.2382C87.4 16.8382 72.5 9.90487 64 6.7382C62.5 3.7382 61 -1.3618 67 2.2382M45 69.7383L61 76.2383M58.5 60.7382L67 98.2383C62.6667 92.4049 53.5 84.9383 51.5 101.738M70 82.7382L64 55.2382C68 62.4049 77.9001 74.1383 85.5001 63.7383C93.1 53.3383 84.3333 48.4049 79 47.2383L90.5 32.7382V42.4882M90.5 52.2383V42.4882M90.5 42.4882C121.167 49.0716 170.1 65.8383 120.5 80.2383C70.9 94.6383 69.1667 123.238 74.5 135.738M95.5 11.2382L4.5 105.238M98 13.7383L6.5 105.238" stroke="#543A13" stroke-width="2" stroke-linejoin="round"/>
</svg>
