<svg width="32" height="32" viewBox="0 0 32 32" fill="none" xmlns="http://www.w3.org/2000/svg">
<g clip-path="url(#clip0_6_38)">
<rect width="32" height="32" rx="16" fill="#653D29"/>
<path opacity="0.5" d="M29.3334 16.0001C29.3334 23.3641 23.3641 29.3334 16.0001 29.3334C8.63608 29.3334 2.66675 23.3641 2.66675 16.0001C2.66675 8.63608 8.63608 2.66675 16.0001 2.66675C23.3641 2.66675 29.3334 8.63608 29.3334 16.0001Z" fill="#FF9900"/>
<path d="M13.8841 11.3307L14.1027 10.9387C14.9467 9.42408 15.3694 8.66675 16.0001 8.66675C16.6307 8.66675 17.0534 9.42408 17.8974 10.9387L18.1161 11.3307C18.3561 11.7614 18.4761 11.9761 18.6627 12.1174C18.8494 12.2601 19.0841 12.3134 19.5494 12.4187L19.9734 12.5147C21.6134 12.8854 22.4334 13.0707 22.6281 13.6987C22.8241 14.3254 22.2641 14.9787 21.1467 16.2867L20.8574 16.6254C20.5401 16.9961 20.3814 17.1827 20.3107 17.4121C20.2374 17.6414 20.2614 17.8894 20.3107 18.3854L20.3534 18.8361C20.5227 20.5801 20.6067 21.4521 20.0961 21.8401C19.5854 22.2267 18.8187 21.8747 17.2827 21.1681L16.8854 20.9841C16.4494 20.7841 16.2321 20.6827 16.0001 20.6827C15.7694 20.6827 15.5507 20.7841 15.1147 20.9841L14.7174 21.1681C13.1814 21.8747 12.4147 22.2281 11.9041 21.8401C11.3934 21.4534 11.4774 20.5801 11.6467 18.8361L11.6894 18.3854C11.7387 17.8894 11.7627 17.6414 11.6894 17.4121C11.6187 17.1827 11.4601 16.9961 11.1427 16.6254L10.8534 16.2867C9.73605 14.9801 9.17605 14.3267 9.37205 13.6987C9.56672 13.0721 10.3854 12.8854 12.0254 12.5147L12.4507 12.4187C12.9174 12.3121 13.1494 12.2601 13.3374 12.1187C13.5241 11.9761 13.6441 11.7601 13.8841 11.3307Z" fill="#FF9900"/>
</g>
<defs>
<clipPath id="clip0_6_38">
<rect width="32" height="32" rx="16" fill="white"/>
</clipPath>
</defs>
</svg>
